<?xml version="1.0" standalone="no"?>
<!DOCTYPE svg PUBLIC "-//W3C//DTD SVG 20010904//EN"
 "http://www.w3.org/TR/2001/REC-SVG-20010904/DTD/svg10.dtd">
<svg version="1.0" xmlns="http://www.w3.org/2000/svg"
 width="700.000000pt" height="700.000000pt" viewBox="0 0 700.000000 700.000000"
 preserveAspectRatio="xMidYMid meet">
<metadata>
Created by potrace 1.11, written by Peter Selinger 2001-2013
</metadata>
<g transform="translate(0.000000,700.000000) scale(0.100000,-0.100000)"
fill="#000000" stroke="none">
<path d="M550 6888 c-218 -20 -396 -174 -455 -393 -15 -54 -16 -332 -16 -3005
0 -1620 2 -2956 5 -2970 3 -14 9 -38 12 -55 29 -137 154 -282 297 -345 108
-48 4 -46 3117 -44 1614 1 2949 4 2965 8 52 12 68 18 130 48 145 71 247 203
279 362 10 48 12 690 11 3016 l-2 2955 -25 71 c-59 168 -189 289 -363 340 -56
16 -238 17 -2970 18 -1600 1 -2944 -2 -2985 -6z m3165 -872 c44 -4 91 -9 105
-11 14 -2 50 -6 80 -10 30 -4 85 -13 122 -21 37 -7 80 -16 95 -19 279 -52 694
-225 972 -405 l114 -74 -44 -37 c-79 -68 -73 -68 -184 2 -373 234 -815 383
-1265 425 -176 17 -527 6 -675 -20 -16 -3 -48 -8 -70 -12 -174 -27 -470 -116
-652 -196 -453 -198 -847 -512 -1150 -913 -169 -224 -343 -557 -424 -813 -52
-165 -100 -374 -114 -497 -4 -33 -9 -68 -11 -78 -7 -41 -17 -218 -17 -312 0
-104 11 -323 17 -334 2 -3 7 -35 10 -71 6 -53 43 -244 60 -310 35 -131 78
-261 128 -385 42 -101 163 -344 197 -393 99 -145 131 -200 131 -228 0 -51 -55
-85 -103 -63 -62 28 -285 425 -387 689 -92 237 -151 483 -185 775 -13 112 -15
557 -2 610 2 11 7 47 11 80 53 482 266 1007 576 1420 113 150 163 208 300 344
343 340 772 595 1233 735 64 20 127 38 139 40 13 3 61 14 108 25 47 10 104 22
127 25 22 3 52 7 65 10 37 8 106 16 203 22 50 4 91 7 92 8 6 5 326 -2 398 -8z
m2186 -340 c90 -32 156 -116 166 -209 8 -74 -13 -129 -79 -213 -45 -58 -191
-243 -231 -294 -7 -8 -37 -47 -67 -85 -92 -117 -240 -305 -315 -400 -40 -49
-143 -180 -229 -290 -87 -110 -161 -201 -164 -202 -4 -2 -20 18 -36 45 -127
203 -335 415 -526 534 -38 23 -68 46 -67 50 1 3 182 145 402 315 220 170 510
394 645 499 135 104 260 200 278 213 66 47 155 62 223 37z m-2370 -143 c41
-42 24 -122 -31 -141 -88 -31 -153 79 -84 143 21 19 34 24 62 20 20 -3 44 -13
53 -22z m-340 -9 c50 -25 55 -93 12 -133 -22 -19 -34 -22 -67 -18 -23 3 -44
13 -50 24 -30 51 -25 91 16 123 25 21 55 22 89 4z m633 5 c30 -14 55 -61 48
-95 -11 -57 -101 -85 -141 -43 -52 56 -19 137 61 148 4 1 18 -4 32 -10z m-945
-69 c49 -26 55 -89 11 -130 -24 -22 -37 -27 -63 -24 -64 10 -97 81 -61 132 27
39 67 47 113 22z m1254 11 c19 -2 57 -56 57 -80 -1 -48 -53 -92 -100 -85 -33
5 -70 48 -70 82 0 49 48 95 90 86 8 -1 19 -3 23 -3z m-1539 -132 c25 -29 25
-51 4 -95 -10 -22 -43 -41 -65 -38 -7 1 -22 2 -33 3 -21 1 -48 36 -55 70 -6
32 14 68 47 84 39 19 73 11 102 -24z m1883 8 c8 -7 16 -29 19 -48 13 -80 -89
-127 -143 -65 -38 45 -28 103 24 130 29 15 76 7 100 -17z m-2191 -129 c58 -27
50 -118 -12 -144 -31 -13 -39 -13 -69 2 -58 27 -65 95 -15 138 30 25 52 26 96
4z m2472 -2 c5 -3 15 -19 22 -36 32 -77 -53 -141 -131 -99 -55 29 -38 125 26
149 18 7 62 -1 83 -14z m-2726 -183 c36 -32 30 -102 -11 -128 -44 -28 -99 -17
-121 24 -44 84 61 166 132 104z m-245 -204 c22 -12 33 -37 33 -79 -1 -80 -118
-102 -156 -28 -41 79 40 150 123 107z m4250 -244 c67 -108 169 -303 208 -400
16 -38 32 -74 36 -80 7 -11 107 -318 113 -350 3 -11 10 -42 16 -70 18 -76 19
-84 35 -175 33 -195 40 -282 40 -505 0 -203 -5 -279 -30 -445 -15 -104 -58
-312 -75 -360 -5 -14 -21 -65 -35 -114 -62 -205 -182 -465 -310 -671 -78 -127
-122 -182 -149 -189 -49 -12 -96 23 -96 73 0 11 33 71 74 133 40 62 101 164
134 227 63 117 162 339 162 363 0 8 4 18 8 24 10 10 73 216 87 280 2 11 10 48
19 84 15 62 20 96 32 185 3 22 7 51 9 64 10 59 19 228 18 356 0 122 -3 183
-18 347 -2 20 -9 63 -15 97 -6 33 -13 73 -16 88 -3 16 -14 66 -25 113 -11 47
-22 92 -24 100 -10 46 -63 200 -102 300 -78 197 -200 424 -314 582 -27 37 -49
72 -49 77 0 5 21 34 46 65 l46 57 60 -83 c33 -46 85 -123 115 -173z m-2377
101 c160 -29 217 -42 307 -72 448 -150 799 -480 974 -917 25 -61 75 -228 83
-278 3 -19 8 -45 11 -59 24 -112 23 -368 -1 -520 -11 -64 -55 -223 -81 -290
-203 -521 -627 -881 -1179 -1002 -83 -18 -133 -21 -304 -22 -179 -1 -219 2
-314 23 -189 40 -407 127 -532 210 -25 17 -47 31 -50 31 -15 0 -162 125 -244
209 -189 191 -318 411 -395 676 -14 50 -28 106 -31 125 -3 19 -7 41 -9 48 -9
24 -19 167 -19 262 0 542 273 1041 733 1338 192 124 459 218 676 238 39 4 71
8 73 9 6 5 268 -3 302 -9z m-2107 -87 c27 -12 47 -47 47 -83 0 -36 -46 -76
-87 -76 -81 0 -114 110 -45 153 32 20 52 21 85 6z m4080 -248 c4 -1 19 -13 32
-27 51 -55 15 -136 -60 -136 -65 0 -105 66 -75 122 13 24 58 49 79 45 9 -2 20
-4 24 -4z m-4225 -55 c29 -58 -19 -127 -83 -119 -38 5 -75 45 -75 82 0 35 33
78 63 83 35 6 81 -16 95 -46z m-153 -263 c26 -34 29 -73 8 -102 -40 -53 -106
-53 -146 1 -17 23 -18 31 -8 60 17 48 48 70 94 64 21 -2 45 -13 52 -23z m4549
5 c39 -35 43 -78 12 -115 -23 -27 -32 -31 -68 -29 -50 4 -78 33 -78 80 0 73
81 111 134 64z m-4662 -305 c34 -31 29 -99 -10 -129 -26 -20 -76 -17 -106 7
-46 36 -32 115 25 138 29 12 68 5 91 -16z m4766 8 c26 -14 44 -65 33 -94 -19
-49 -74 -72 -119 -50 -37 18 -52 56 -40 100 14 53 71 73 126 44z m-4840 -315
c5 -3 15 -19 22 -36 10 -24 10 -36 0 -60 -15 -37 -28 -48 -67 -54 -24 -5 -38
0 -62 20 -84 71 13 188 107 130z m4917 -11 c54 -53 13 -145 -64 -145 -29 0
-70 40 -75 74 -14 80 82 129 139 71z m-4932 -328 c23 -27 17 -81 -11 -110 -31
-30 -89 -27 -118 7 -41 47 -28 107 29 131 36 15 70 6 100 -28z m4954 25 c53
-29 42 -130 -17 -150 -57 -21 -128 39 -115 97 13 61 74 85 132 53z m-4942
-345 c22 -31 18 -72 -9 -103 -64 -75 -182 10 -135 97 26 50 111 53 144 6z
m4934 17 c39 -32 42 -80 9 -119 -55 -63 -161 -8 -143 75 14 66 82 88 134 44z
m-4910 -309 c86 -44 40 -167 -56 -152 -95 16 -82 162 15 166 7 1 26 -6 41 -14z
m4864 -17 c30 -40 26 -86 -7 -115 -28 -24 -54 -26 -99 -8 -43 18 -50 93 -12
131 34 34 90 30 118 -8z m-4743 -307 c37 -36 34 -84 -6 -120 -54 -46 -134 -7
-134 66 0 76 85 110 140 54z m4645 3 c34 -37 33 -83 -3 -117 -35 -34 -72 -34
-111 -1 -41 34 -42 80 -5 118 36 36 86 36 119 0z m-4524 -277 c42 -32 50 -91
19 -125 -71 -76 -193 12 -134 96 27 39 84 53 115 29z m4383 -10 c22 -18 28
-31 28 -62 0 -72 -78 -110 -135 -65 -48 38 -41 110 13 137 36 18 61 16 94 -10z
m-4064 -177 c36 -36 14 -73 -75 -125 -265 -156 -288 -168 -313 -159 -15 5 -29
21 -35 38 -8 23 -6 32 10 48 33 32 346 216 371 217 12 1 31 -8 42 -19z m3895
-76 c88 -52 168 -103 178 -111 35 -33 11 -93 -38 -93 -33 0 -375 208 -376 229
-4 48 13 71 50 71 16 0 91 -38 186 -96z"/>
<path d="M2815 4063 c-125 -34 -207 -139 -207 -264 0 -68 27 -131 77 -183 42
-44 77 -62 143 -74 196 -35 357 150 297 341 -20 64 -79 132 -139 161 -39 18
-135 29 -171 19z"/>
<path d="M3983 4056 c-57 -18 -116 -67 -149 -124 -39 -65 -44 -177 -11 -238
30 -56 46 -75 88 -107 73 -55 175 -64 262 -24 93 43 145 117 154 217 17 188
-163 332 -344 276z"/>
<path d="M2366 2932 c-16 -4 -18 -12 -12 -86 33 -425 311 -798 713 -955 413
-161 874 -64 1189 253 100 100 155 176 213 293 67 136 104 272 115 421 l6 72
-28 1 c-91 3 -2182 3 -2196 1z"/>
</g>
</svg>
