<svg id="Layer_1" data-name="Layer 1" xmlns="http://www.w3.org/2000/svg" viewBox="0 0 63.46 44.86"><defs><style>.cls-1{fill:#353535;}</style></defs><title>DiakThumbs</title><path class="cls-1" d="M105.86,213.88c-2.15,0-3.94-.09-5.31-.2a28.63,28.63,0,0,1-4.25-.7c-1.6-.44-1.5-.61-3.15-1a23.76,23.76,0,0,0-5-1,3,3,0,0,1-1.79-.53,2.52,2.52,0,0,1-.62-.71L86,197.32a2.1,2.1,0,0,1,.58-1.46c1.15-1.07,3.24.33,5.45-.94a3.67,3.67,0,0,0,.7-.5c.79-.79.72-1.83,2.18-2.93,1.78-1.36,2.81-.71,4.54-1.56,4.33-2.11,3.95-9.15,6.3-9.27.83,0,1.48.79,1.79,1.18,1.85,2.35,1,6.77-1.88,11.2h5.65c2.64-.36,4.58,1.4,4.59,2.8s-1.72,3-4.2,2.95c2.09-.16,3.65,1.25,3.72,2.5s-1.57,3.06-3.89,2.83a2.72,2.72,0,1,1-.22,5.43c1,1.06,1,1.77.92,2C111.94,213,109.45,214.08,105.86,213.88Z" transform="translate(-52.39 -180.65)"/><path class="cls-1" d="M62.48,194.25c.23,0,.47,0,.71,0h.26c1.77,0,3.26.08,4.41.18a26.59,26.59,0,0,1,3.74.61c1.41.39,1.32.54,2.77.92a20.82,20.82,0,0,0,4.4.92,2.52,2.52,0,0,1,1.57.46,2.1,2.1,0,0,1,.55.62l-.18,10.87a1.9,1.9,0,0,1-.51,1.28,1.77,1.77,0,0,1-1.26.39c-.44,0-.94-.07-1.47-.07a4,4,0,0,0-2.07.51,3.28,3.28,0,0,0-.62.44c-.69.69-.63,1.6-1.91,2.58-1.58,1.2-2.48.62-4,1.37-3.81,1.86-3.47,8.05-5.55,8.16h0c-.7,0-1.26-.7-1.52-1-1.63-2.07-.89-6,1.65-9.86h-5a4.3,4.3,0,0,1-.61,0c-2,0-3.42-1.39-3.43-2.51s1.31-2.46,3.25-2.59h0a2.82,2.82,0,0,1-2.83-2.2c-.06-1.12,1.22-2.52,3.06-2.52H58l.21,0-.21,0a2.47,2.47,0,0,1-2.23-2.22,2.5,2.5,0,0,1,2.53-2.54h.11c-.89-.93-.84-1.55-.81-1.77.2-1.13,2.08-2.06,4.86-2.06m0-2h0c-3.76,0-6.44,1.46-6.83,3.72a3.52,3.52,0,0,0,0,1,4.94,4.94,0,0,0-.64.56,4.37,4.37,0,0,0-1.2,3.22,4.08,4.08,0,0,0,.4,1.55l-.19.19a4.07,4.07,0,0,0-1.19,3,3.65,3.65,0,0,0,.69,1.94,4,4,0,0,0-1.12,2.76c0,2.17,2.21,4.49,5.43,4.49a6,6,0,0,0,.73,0h1.5c-1.57,3.63-1.56,6.95.12,9.09a4.06,4.06,0,0,0,3.1,1.81h.16c2.26-.12,3-2.28,3.69-4.18.59-1.65,1.25-3.51,2.62-4.19a3.84,3.84,0,0,1,1.12-.29A6.36,6.36,0,0,0,76,213.22a4.06,4.06,0,0,1,.2-.38l.23-.15a2,2,0,0,1,1.07-.24c.23,0,.46,0,.68,0s.54,0,.79,0a3.72,3.72,0,0,0,2.62-.93A3.76,3.76,0,0,0,82.7,209v-.11l.09-5.45.09-5.41v-.57l-.29-.49a4.18,4.18,0,0,0-1.06-1.19,4.53,4.53,0,0,0-2.71-.87,21.2,21.2,0,0,1-4-.85,7.1,7.1,0,0,1-1.19-.39,12.09,12.09,0,0,0-1.56-.53,28,28,0,0,0-4.1-.67c-1.49-.13-3-.19-4.58-.19h-.21c-.26,0-.51,0-.76,0Z" transform="translate(-52.39 -180.65)"/></svg>