<svg width="24" height="26" viewBox="0 0 24 26" fill="none" xmlns="http://www.w3.org/2000/svg">
<g id="icon/content/paste_24px">
<path id="icon/content/paste_24px_2" fill-rule="evenodd" clip-rule="evenodd" d="M19 3.23077H14.82C14.4 1.98154 13.3 1.07692 12 1.07692C10.7 1.07692 9.6 1.98154 9.18 3.23077H5C3.9 3.23077 3 4.2 3 5.38461V22.6154C3 23.8 3.9 24.7692 5 24.7692H19C20.1 24.7692 21 23.8 21 22.6154V5.38461C21 4.2 20.1 3.23077 19 3.23077ZM12 3.23077C12.55 3.23077 13 3.71538 13 4.30769C13 4.9 12.55 5.38462 12 5.38462C11.45 5.38462 11 4.9 11 4.30769C11 3.71538 11.45 3.23077 12 3.23077ZM5 22.6154H19V5.38462H17V8.61539H7V5.38462H5V22.6154Z" fill="#350D7E"/>
</g>
</svg>
