<svg width="30" height="30" viewBox="0 0 30 30" fill="none" xmlns="http://www.w3.org/2000/svg">
<g id="icon/editor/scatter_plot_24px">
<path id="icon/editor/scatter_plot_24px_2" fill-rule="evenodd" clip-rule="evenodd" d="M14.1667 13.0833C11.3121 13.0833 9 10.7712 9 7.91667C9 5.06208 11.3121 2.75 14.1667 2.75C17.0213 2.75 19.3333 5.06208 19.3333 7.91667C19.3333 10.7712 17.0213 13.0833 14.1667 13.0833ZM4 17.9167C4 20.7712 6.31208 23.0833 9.16667 23.0833C12.0212 23.0833 14.3333 20.7712 14.3333 17.9167C14.3333 15.0621 12.0212 12.75 9.16667 12.75C6.31208 12.75 4 15.0621 4 17.9167ZM6.5 17.8333C6.5 16.4125 7.6625 15.25 9.08333 15.25C10.5042 15.25 11.6667 16.4125 11.6667 17.8333C11.6667 19.2542 10.5042 20.4167 9.08333 20.4167C7.6625 20.4167 6.5 19.2542 6.5 17.8333ZM11.5 7.83333C11.5 6.4125 12.6625 5.25 14.0833 5.25C15.5042 5.25 16.6667 6.4125 16.6667 7.83333C16.6667 9.25417 15.5042 10.4167 14.0833 10.4167C12.6625 10.4167 11.5 9.25417 11.5 7.83333ZM21.1667 27.5833C18.3121 27.5833 16 25.2713 16 22.4167C16 19.5621 18.3121 17.25 21.1667 17.25C24.0212 17.25 26.3333 19.5621 26.3333 22.4167C26.3333 25.2713 24.0212 27.5833 21.1667 27.5833ZM18.5 22.3333C18.5 20.9125 19.6625 19.75 21.0833 19.75C22.5042 19.75 23.6667 20.9125 23.6667 22.3333C23.6667 23.7542 22.5042 24.9167 21.0833 24.9167C19.6625 24.9167 18.5 23.7542 18.5 22.3333Z" fill="#350D7E"/>
</g>
</svg>
