<svg id="Layer_1" data-name="Layer 1" xmlns="http://www.w3.org/2000/svg" viewBox="0 0 30.16 33.24"><defs><style>.cls-1{fill:#353535;}</style></defs><title>thumbsUp</title><path class="cls-1" d="M965.47,556.23c-2.15,0-3.94-.09-5.31-.2a29.2,29.2,0,0,1-4.25-.7c-1.6-.44-1.5-.61-3.15-1a23.7,23.7,0,0,0-5-1,3,3,0,0,1-1.79-.53,2.62,2.62,0,0,1-.62-.71l.26-12.42a2.14,2.14,0,0,1,.58-1.46c1.15-1.07,3.24.33,5.45-.94a3.87,3.87,0,0,0,.7-.5c.79-.79.72-1.83,2.18-2.93,1.78-1.36,2.81-.71,4.54-1.56,4.33-2.11,4-9.15,6.3-9.27a2.61,2.61,0,0,1,1.79,1.18c1.85,2.35,1,6.77-1.88,11.2h5.65c2.64-.36,4.58,1.4,4.59,2.8s-1.72,3-4.2,2.95c2.09-.16,3.65,1.25,3.72,2.5s-1.57,3.06-3.89,2.83a2.72,2.72,0,0,1,0,5.44h-.25c1,1.06,1,1.77.92,2C971.55,555.35,969.06,556.43,965.47,556.23Z" transform="translate(-945.35 -523.01)"/></svg>