<svg id="Layer_1" data-name="Layer 1" xmlns="http://www.w3.org/2000/svg" viewBox="0 0 30.5 33.33"><defs><style>.cls-1{fill:#353535;}</style></defs><title>thumbsDown</title><path class="cls-1" d="M955.09,525.6h1c1.77,0,3.26.08,4.41.18a26.26,26.26,0,0,1,3.74.61c1.41.39,1.32.54,2.77.92a21.26,21.26,0,0,0,4.4.92,2.52,2.52,0,0,1,1.57.46,2.17,2.17,0,0,1,.55.62l-.18,10.87a1.9,1.9,0,0,1-.51,1.28,1.75,1.75,0,0,1-1.26.39c-.44,0-.94-.07-1.47-.07a4,4,0,0,0-2.07.51,3.32,3.32,0,0,0-.62.44c-.69.69-.63,1.6-1.91,2.58-1.58,1.2-2.48.62-4,1.37-3.81,1.86-3.47,8.05-5.55,8.16h0c-.7,0-1.26-.7-1.52-1-1.63-2.07-.89-6,1.65-9.86h-5.61c-2,0-3.42-1.39-3.43-2.51s1.31-2.46,3.25-2.59h0a2.81,2.81,0,0,1-2.83-2.2c-.06-1.12,1.22-2.52,3.06-2.52h.11a2.46,2.46,0,0,1-2.23-2.22,2.5,2.5,0,0,1,2.46-2.54H951c-.89-.93-.84-1.55-.81-1.77.2-1.13,2.08-2.06,4.86-2.06m0-2h0c-3.76,0-6.44,1.46-6.83,3.72a3.35,3.35,0,0,0,0,1,5.7,5.7,0,0,0-.64.56,4.36,4.36,0,0,0-1.2,3.22,4.18,4.18,0,0,0,.4,1.55l-.19.19a4.09,4.09,0,0,0-1.19,3,3.68,3.68,0,0,0,.69,1.94,4,4,0,0,0-1.12,2.76c0,2.17,2.21,4.49,5.43,4.49h2.23c-1.57,3.63-1.56,7,.12,9.09a4.07,4.07,0,0,0,3.1,1.81H956c2.26-.12,3-2.28,3.69-4.18.59-1.65,1.25-3.51,2.62-4.19a3.93,3.93,0,0,1,1.12-.29,6.35,6.35,0,0,0,5.15-3.67c.06-.13.13-.26.2-.38L969,544a2,2,0,0,1,1.07-.24h1.47a3.71,3.71,0,0,0,2.62-.93,3.75,3.75,0,0,0,1.11-2.52v-.11l.09-5.45.09-5.41v-.57l-.29-.49a4.15,4.15,0,0,0-1.06-1.19,4.56,4.56,0,0,0-2.71-.87,20.94,20.94,0,0,1-4-.85,6.9,6.9,0,0,1-1.19-.39,12.46,12.46,0,0,0-1.56-.53,28.49,28.49,0,0,0-4.1-.67c-1.49-.13-3-.19-4.58-.19h-1Z" transform="translate(-944.99 -523.57)"/></svg>